<?xml version="1.0" encoding="utf-8"?>
<!-- Generator: Adobe Illustrator 24.1.0, SVG Export Plug-In . SVG Version: 6.00 Build 0)  -->
<svg version="1.1" id="Layer_1" xmlns="http://www.w3.org/2000/svg" xmlns:xlink="http://www.w3.org/1999/xlink" x="0px" y="0px"
	 viewBox="0 0 1200 800" style="enable-background:new 0 0 1200 800;" xml:space="preserve">
<style type="text/css">
	.st0{fill-rule:evenodd;clip-rule:evenodd;fill:#D3D3D3;}
	.st1{fill:#D3D3D3;}
</style>
<path class="st0" d="M271.7,409.4c-54.7-0.2-99.2-36.2-122.8-79.2c23.8-42.8,68.5-77.6,122.8-77.6c55.2,0,99.4,34.5,122.8,77.6
	C371.1,373.2,327.4,409.6,271.7,409.4 M271.7,197.9c-73.6,0-133.2,59.6-133.2,133.2c0,73.6,59.6,133.2,133.2,133.2
	c73.6,0,133.2-59.7,133.2-133.2C404.9,257.5,345.3,197.9,271.7,197.9"/>
<path class="st0" d="M271.7,401.8c39,0,70.7-31.6,70.7-70.6s-31.6-70.6-70.7-70.6c-39,0-70.6,31.6-70.6,70.6
	S232.7,401.8,271.7,401.8 M645.3,205h119.2c50.6,0,85.9,31.1,85.9,62.8c0,23.7-9,46.1-59,57c19.2,2.6,71.8,16.7,71.8,66.6
	c0,50-55.1,74.3-92.9,74.3h-125v-2.6H769c29.5,0,48.1-12.2,48.1-67.9c0-55.7-20.5-68.6-46.1-69.2h-38.4v-2.6h40.7
	c16.7,0,34.3-2.6,34.3-56.4s-21.2-59.6-43.6-59.6h-31.4v255.7h-47.4V207.5h-39.7L645.3,205z M477.1,337
	c0-98.7,28.8-133.9,62.8-133.9c48.1,0,74.3,71.1,82.7,98.7v-95.5c-8.3,6.4-12.2,9.6-21.1,9.6c-9,0-22.4-4.5-28.8-8.3
	c-6.4-3.8-19.2-7.1-32-7.1c-42.3,0-116,55.8-116,136.5c0,95.5,65.4,136.5,116,136.5c12.8,0,26.9-5.1,33.3-9c6.4-3.8,18.6-9,27.6-9
	c9,0,12.8,3.2,21.1,9.6V369c-7,37.2-34.6,101.9-82.7,101.9c-13.8,0-32.7-6.4-41.3-15.4C495.9,452.8,477.1,439.5,477.1,337
	 M1034,414.5c-0.6,21.1-16.7,49.3-50,48.7c-33.3-0.6-73.7-25.6-89.1-92.9v91c6.4-5.8,17.3-16,34.6-8.3c17.3,7.7,42.9,12.8,54.5,12.8
	c11.5,0,75-12.2,77.5-85.2c0.6-36.5-25.6-55.1-41.7-60.9c-18.6-7.1-44.9-15.4-60.2-20.5c-15.4-5.1-40.4-21.1-39.7-50.6
	c0.6-29.5,18.6-45.5,42.9-45.5c24.3,0,57,19.2,73.7,87.2v-90.3c-9.6,8.3-17.3,12.2-23.1,12.2c-5.1,0-20-5.9-27.6-8.2
	c-8.3-2.6-16.5-3.5-26.9-3.4c-18.3,0.3-61.2,22.4-64.1,82c-2.1,43.5,30.1,60.2,44.9,65.4c12.8,4.5,50,17.9,60.9,22.4
	C1011.5,374.7,1035.3,390.1,1034,414.5"/>
<path class="st1" d="M224.8,525.7c-3.7-14.3-9.9-22.5-25.8-22.5c-19.8,0-29.6,18-29.6,45c0,32.7,13,45,30.9,45
	c13.9,0,20.9-8.4,24.8-21.8l8.1,5c-6.2,18.5-18.1,25.7-34.5,25.7c-21,0-37.8-15.3-37.8-53.9c0-38.9,17.9-53.9,37.1-53.9
	c17.5,0,28.2,7.2,35.2,26.5L224.8,525.7z M289.7,593.2c21,0,29.8-23.7,29.8-45c0-21.3-8.8-45-29.8-45c-21,0-29.8,23.7-29.8,45
	C259.9,569.5,268.7,593.2,289.7,593.2 M289.7,494.2c26.2,0,38.3,26.7,38.3,53.9c0,27.3-12.1,53.9-38.3,53.9
	c-26.2,0-38.3-26.7-38.3-53.9C251.4,520.9,263.5,494.2,289.7,494.2 M357.4,545h26.2c17.9,0,21.9-10.5,21.9-19.6
	c0-12-5.5-19.6-20.5-19.6h-27.6L357.4,545L357.4,545z M348.9,496.8h39.1c18.3,0,25.8,14.1,25.8,28.5c0,17.6-9.9,26.8-26,28.1
	l28.3,46h-10.7l-28.1-45.6h-20.1v45.6h-8.5V496.8z M447.6,544h28.1c14.4,0,21.6-6.2,21.6-19.2c0-6.1-0.9-19-18.1-19h-31.6L447.6,544
	L447.6,544z M439.2,496.8h43.6c17.4,0,23,14.9,23,28c0,20-10.9,28.1-26.8,28.1h-31.3v46.6h-8.5L439.2,496.8z M561.2,593.2
	c21,0,29.8-23.7,29.8-45c0-21.3-8.8-45-29.8-45c-21,0-29.8,23.7-29.8,45C531.3,569.5,540.2,593.2,561.2,593.2 M561.2,494.2
	c26.2,0,38.3,26.7,38.3,53.9c0,27.3-12.1,53.9-38.3,53.9c-26.2,0-38.3-26.7-38.3-53.9C522.9,520.9,534.9,494.2,561.2,494.2
	 M631.4,545h26.2c17.9,0,21.9-10.5,21.9-19.6c0-12-5.5-19.6-20.5-19.6h-27.6V545L631.4,545z M622.9,496.8H662
	c18.3,0,25.8,14.1,25.8,28.5c0,17.6-9.9,26.8-26,28.1l28.3,46h-10.7l-28.1-45.6h-20.1v45.6h-8.5V496.8z M755.5,560.6L739.1,510
	l-16.9,50.6H755.5z M742.9,496.8l34.3,102.7h-9.1l-9.9-30.9h-38.9l-10.6,30.9h-8.7l36-102.7H742.9z M771.3,496.8h63.9v8.9h-27.7
	v93.7H799v-93.7h-27.7V496.8z M853.5,496.8h8.4v102.7h-8.4V496.8z M920.2,593.2c21,0,29.8-23.7,29.8-45c0-21.3-8.8-45-29.8-45
	c-21,0-29.8,23.7-29.8,45C890.4,569.5,899.2,593.2,920.2,593.2 M920.2,494.2c26.2,0,38.3,26.7,38.3,53.9c0,27.3-12.1,53.9-38.3,53.9
	S882,575.4,882,548.2C882,520.9,894,494.2,920.2,494.2 M978.9,496.8h8.3l50.6,86.2h0.2v-86.2h8.5v102.7h-8.3l-50.6-86.2h-0.2v86.2
	h-8.5V496.8z"/>
</svg>
