<?xml version="1.0" encoding="utf-8"?>
<!-- Generator: Adobe Illustrator 19.0.0, SVG Export Plug-In . SVG Version: 6.00 Build 0)  -->
<svg version="1.1" id="Layer_1" xmlns="http://www.w3.org/2000/svg" xmlns:xlink="http://www.w3.org/1999/xlink" x="0px" y="0px"
	 viewBox="0 0 500 500" style="enable-background:new 0 0 500 500;" xml:space="preserve">
<style type="text/css">
	.st0{fill:#FFFFFF;}
	.st1{fill:#5F53AE;}
	.st2{fill:#C81A46;}
	.st3{fill:#0E88D3;}
	.st4{fill:#F25C19;}
	.st5{fill:#33B540;}
	.st6{fill:#FAB20B;}
</style>
<g id="XMLID_1_">
	<path id="XMLID_19_" class="st0" d="M249.7,126.4c5-7.8,13.4-16,22.3-19.4c15.4-6.7,36.2-3.9,48.8,6.7
		c12.2,10.5,18.4,24.9,15.5,41.1c3-0.5,6-2.4,9.2-3.4c18.9-5.1,38.9,0.4,51.1,15.9c9.2,11,11.5,28.2,6,41.5
		c-2.7,6.7-7.4,12.8-13.4,17.9l0.6,0.5c17.6,0.8,34.9,13.8,40.3,29.8c5.7,16.1,0.7,33.3-11.7,45.1c-10.1,9.5-23.1,12.8-37.5,12.5
		H118.5c-21.6,0.4-38.2-8.6-47.2-26.9c-7-15.7-3.6-35.7,9.6-47.6c8.2-8.3,18.6-11.7,29.8-13.4c-12.6-11.2-18.8-26.5-15.2-42.9
		c2.6-13.3,14.5-26.8,28.1-31.4c12.1-4.6,28.4-3.8,39.4,2.4l0.4-0.4c-3.3-18.1,5.1-34.4,20.8-44.4c14-9,36.6-8.8,50.4,0.8
		C240.9,114.6,246,120.7,249.7,126.4"/>
	<path id="XMLID_23_" class="st1" d="M324,133.2c5.6,10.8,2.4,25-3.6,34.7l-45.5,97.6l-0.4,0.4L258,166.9
		c-1.3-9.5,9.4-13.5,15.6-18.1c-0.3-1.4-1.9-1.3-3-2l-15.3-0.2l-0.5-0.5c0-12.3,7-23.6,18.8-29.6c12.3-6.8,29.6-4.9,40.2,3.7
		C318.2,124.1,321.9,128.4,324,133.2"/>
	<path id="XMLID_24_" class="st2" d="M240.1,129.8c3.7,6.5,5.9,14,4.6,22.2l-18.6,113.3l-0.2,0.4l-4.8-9.1l-46.5-99
		c-4.3-12.8-0.3-26.1,9.4-35.2c9.8-9.5,26-12.1,38.8-6.9C229.6,118.3,236,123.5,240.1,129.8"/>
	<path id="XMLID_25_" class="st3" d="M391.3,177.5c6.3,10.2,4.8,25.5-2.1,35c-4.3,6.6-11.5,9.9-17.4,14.3l-96.4,63h-0.3l1.1-3
		l51.1-109.8c7.7-13,22.2-19.5,37.7-17.5C375.6,161.2,386.2,167.8,391.3,177.5"/>
	<path id="XMLID_26_" class="st4" d="M172.3,176.9l53.2,112.8h-0.9l-107.2-70.4c-10.9-8.7-15.3-21.9-11.6-35.1
		c2.8-9.9,11.4-19.2,21.7-22.9C144.3,155.5,163.3,161.7,172.3,176.9"/>
	<path id="XMLID_27_" class="st5" d="M419.3,257.1c5.3,10.7,3.2,25.5-4.4,34.6c-7.6,8.8-17.7,13.5-29.6,13.2L270.9,305l95.8-63.4
		c9.4-5.7,23.6-6.8,33.8-2.1C408.4,242.4,415.8,249.8,419.3,257.1"/>
	<path id="XMLID_28_" class="st6" d="M80.8,257.1c-5.4,10.7-3.3,25.5,4.4,34.6c7.6,8.8,17.7,13.5,29.6,13.2l114.4,0.1l-95.8-63.4
		c-9.3-5.7-23.6-6.8-33.8-2.1C91.6,242.4,84.2,249.8,80.8,257.1"/>
	<path id="XMLID_30_" class="st0" d="M249.7,126.4c5-7.8,13.4-16,22.3-19.4c15.4-6.7,36.2-3.9,48.8,6.7
		c12.2,10.5,18.4,24.9,15.5,41.1c3-0.5,6-2.4,9.2-3.4c18.9-5.1,38.9,0.4,51.1,15.9c9.2,11,11.5,28.2,6,41.5
		c-2.7,6.7-7.4,12.8-13.4,17.9l0.6,0.5c17.6,0.8,34.9,13.8,40.3,29.8c5.7,16.1,0.7,33.3-11.7,45.1c-10.1,9.5-23.1,12.8-37.5,12.5
		H118.5c-21.6,0.4-38.2-8.6-47.2-26.9c-7-15.7-3.6-35.7,9.6-47.6c8.2-8.3,18.6-11.7,29.8-13.4c-12.6-11.2-18.8-26.5-15.2-42.9
		c2.6-13.3,14.5-26.8,28.1-31.4c12.1-4.6,28.4-3.8,39.4,2.4l0.4-0.4c-3.3-18.1,5.1-34.4,20.8-44.4c14-9,36.6-8.8,50.4,0.8
		C240.9,114.6,246,120.7,249.7,126.4"/>
	<path id="XMLID_31_" class="st1" d="M324,133.2c5.6,10.8,2.4,25-3.6,34.7l-45.5,97.6l-0.4,0.4L258,166.9
		c-1.3-9.5,9.4-13.5,15.6-18.1c-0.3-1.4-1.9-1.3-3-2l-15.3-0.2l-0.5-0.5c0-12.3,7-23.6,18.8-29.6c12.3-6.8,29.6-4.9,40.2,3.7
		C318.2,124.1,321.9,128.4,324,133.2"/>
	<path id="XMLID_32_" class="st2" d="M240.1,129.8c3.7,6.5,5.9,14,4.6,22.2l-18.6,113.3l-0.2,0.4l-4.8-9.1l-46.5-99
		c-4.3-12.8-0.3-26.1,9.4-35.2c9.8-9.5,26-12.1,38.8-6.9C229.6,118.3,236,123.5,240.1,129.8"/>
	<path id="XMLID_33_" class="st3" d="M391.3,177.5c6.3,10.2,4.8,25.5-2.1,35c-4.3,6.6-11.5,9.9-17.4,14.3l-96.4,63h-0.3l1.1-3
		l51.1-109.8c7.7-13,22.2-19.5,37.7-17.5C375.6,161.2,386.2,167.8,391.3,177.5"/>
	<path id="XMLID_49_" class="st4" d="M172.3,176.9l53.2,112.8h-0.9l-107.2-70.4c-10.9-8.7-15.3-21.9-11.6-35.1
		c2.8-9.9,11.4-19.2,21.7-22.9C144.3,155.5,163.3,161.7,172.3,176.9"/>
	<path id="XMLID_50_" class="st5" d="M419.3,257.1c5.3,10.7,3.2,25.5-4.4,34.6c-7.6,8.8-17.7,13.5-29.6,13.2L270.9,305l95.8-63.4
		c9.4-5.7,23.6-6.8,33.8-2.1C408.4,242.4,415.8,249.8,419.3,257.1"/>
	<path id="XMLID_51_" class="st6" d="M80.8,257.1c-5.4,10.7-3.3,25.5,4.4,34.6c7.6,8.8,17.7,13.5,29.6,13.2l114.4,0.1l-95.8-63.4
		c-9.3-5.7-23.6-6.8-33.8-2.1C91.6,242.4,84.2,249.8,80.8,257.1"/>
	<polygon id="XMLID_52_" points="103.3,368.5 67.5,335.1 67.5,393.3 79.4,393.3 79.4,362 115.2,395.9 115.2,336.8 103.3,336.8 	"/>
	<polygon id="XMLID_53_" points="271.7,368.5 236,335.1 236,393.3 247.9,393.3 247.9,362 283.6,395.9 283.6,336.8 271.7,336.8 	"/>
	<path id="XMLID_73_" d="M161.8,368.6c-1-1.3-4-3.7-5.4-4.6c-0.4-0.2-0.6-0.3-0.7-0.4c2.2-1.5,5.2-4.9,6-7.6c0.4-1.5,0.6-3,0.6-4.5
		c0-2.4-0.5-4.7-1.6-7c-1.9-3.5-4.9-5.7-9.4-6.7c-1.2-0.3-2.7-0.5-4.3-0.5c-1.6-0.1-7.1-0.1-8.5-0.1l-15.2,0.1v57.1l15.3-0.1
		c1.8,0,7.8,0,9.9-0.2c2.2-0.1,4.2,0,5.6-0.4c3.1-0.9,7.8-3.9,9.6-8.6c0.8-2.1,1.2-4.4,1.2-6.7c0-1.9-0.3-3.6-0.8-5.3
		C163.5,371.4,162.8,369.9,161.8,368.6z M135,346.4c3.2,0,6.3-0.2,9.4,0.2c3.1,0.4,4.9,2.9,4.9,6.8v0.1c0,3.8-2.6,5.8-5.9,6
		c-3.4,0.2-6,0-8.4,0V346.4z M151.7,378c0,4.2-3.9,6.4-7.7,6.7c-3.9,0.2-5.8,0.1-9,0.1v-14.7c3.2,0,7.3-0.2,10.9,0.3
		c3.6,0.4,5.7,3.2,5.8,7.6V378z"/>
	<path id="XMLID_74_" d="M196.8,335.1c-4,0-7.8,0.7-11.5,2.2c-5.6,2.2-10.1,5.9-13.5,11c-3.3,5-5,10.7-5,17.1c0,6.4,1.7,12.1,5,17.1
		c4.5,6.9,10.9,11,19.3,12.5c2.2,0.4,4.3,0.5,6.3,0.5c3.2,0,6.3-0.4,9.4-1.3c0.7-0.2,1.4-0.5,2.1-0.7v-11.6
		c-3.6,2.1-7.5,3.1-11.6,3.1c-5,0-9.9-2.5-13.1-6c-3.3-3.5-5-8-5-13.5c0-5.6,1.7-10.2,5.1-13.7c3.4-3.5,8.1-5.8,13.6-5.8
		c4,0,7.7,1,11.1,2.9v-11.3c-2.2-0.9-4.5-1.6-6.9-1.9C200.3,335.3,198.5,335.1,196.8,335.1z"/>
	<polygon id="XMLID_75_" points="289.2,394 319.4,394 319.4,383.7 301.1,383.7 301.1,370.2 319.4,370.2 319.4,360.7 301.1,360.7 
		301.1,347.2 319.4,347.2 319.4,336.8 289.2,336.8 	"/>
	<polygon id="XMLID_76_" points="385.6,336.8 371,369.3 366,358.2 375.2,336.8 363.7,336.8 360,345.2 356.2,336.8 344.5,336.8 
		354.1,358.8 349,369.4 333.9,336.8 321.9,336.8 348.6,396.6 360.2,371.2 372.2,396.6 398.3,336.8 	"/>
	<path id="XMLID_77_" d="M425.5,366.2c-3.1-2.7-5.3-4.1-9.3-6.4c-1.8-0.9-4.5-2-6.3-3.4c-1.8-1.3-2.9-3.1-2.9-4.6
		c0-1.6,0.6-2.9,1.6-3.9c6.8-6.8,17.4,2.3,17.4,2.3l0.1-12.1c0,0-8.8-3.5-14.5-2.7c-4.1,0.6-7.8,2.1-10.9,5.1c-3.2,3.1-5,6.4-5,10.9
		v0.7c0,4.1,1.6,8.1,3.9,10.5c2.5,2.6,5.3,4.3,8.5,6.1c1.7,1,3.5,1.5,6.1,2.9c2.6,1.5,3.9,3.8,3.9,6c0,2.2-0.7,3.5-1.9,4.9
		c-1,1.3-3,2.9-6.6,2.9c-6.7,0-12.4-6-12.4-6l0.1,12.6c0,0,6,3.5,13.7,3.5c0.4,0,0.7,0,1.1,0c4.9-0.3,8.7-1.8,12-4.9
		c3.3-3.1,5.3-7.5,5.6-12.2C430.2,373.5,428.6,368.8,425.5,366.2z"/>
</g>
</svg>
